<?xml version="1.0" standalone="no"?>
<!DOCTYPE svg PUBLIC "-//W3C//DTD SVG 20010904//EN"
 "http://www.w3.org/TR/2001/REC-SVG-20010904/DTD/svg10.dtd">
<svg version="1.0" xmlns="http://www.w3.org/2000/svg"
 width="5532.000000pt" height="5533.000000pt" viewBox="0 0 5532.000000 5533.000000"
 preserveAspectRatio="xMidYMid meet">

<g transform="translate(0.000000,5533.000000) scale(0.100000,-0.100000)"
fill="#000000" stroke="none">
<path d="M28090 38723 c-263 -32 -512 -93 -743 -183 -29 -11 -56 -20 -60 -20
-5 0 -34 -12 -65 -26 -31 -14 -73 -33 -92 -41 -51 -23 -198 -97 -250 -127 -25
-14 -55 -30 -68 -36 -12 -5 -35 -18 -50 -29 -15 -10 -81 -54 -147 -97 -66 -43
-138 -92 -161 -111 -23 -18 -45 -33 -49 -33 -4 0 -17 -9 -29 -20 -30 -29 -111
-97 -178 -149 -63 -49 -423 -410 -478 -480 -19 -23 -42 -50 -51 -60 -62 -65
-210 -260 -326 -431 -85 -125 -89 -131 -117 -181 -10 -19 -22 -36 -26 -39 -4
-3 -23 -33 -41 -68 -19 -34 -53 -97 -76 -140 -24 -42 -48 -88 -54 -102 -6 -14
-20 -41 -30 -61 -11 -20 -19 -43 -19 -51 0 -8 -9 -23 -20 -33 -11 -10 -20 -28
-20 -39 0 -12 -6 -30 -14 -41 -7 -11 -17 -34 -20 -52 -4 -17 -14 -37 -22 -44
-8 -6 -14 -21 -14 -33 -1 -11 -9 -39 -20 -61 -11 -22 -19 -46 -20 -53 0 -7 -8
-34 -19 -60 -23 -60 -85 -269 -110 -376 -27 -115 -61 -322 -76 -472 -27 -254
-10 -699 30 -841 8 -28 15 -64 15 -80 1 -15 8 -46 16 -68 8 -22 18 -58 23 -80
31 -145 154 -416 266 -585 149 -227 385 -459 573 -565 15 -9 45 -27 67 -40 36
-22 139 -73 190 -95 11 -5 41 -18 66 -28 26 -11 62 -23 80 -27 19 -4 45 -13
59 -20 24 -13 122 -36 165 -39 18 -1 20 6 23 69 4 87 -1 107 -30 121 -248 117
-474 306 -637 536 -21 29 -46 67 -55 83 -9 17 -26 46 -38 65 -41 69 -78 141
-78 153 0 6 -9 23 -20 37 -11 14 -20 34 -20 45 0 11 -7 30 -15 41 -8 12 -19
39 -24 60 -5 22 -16 59 -24 84 -34 105 -47 163 -68 300 -19 123 -22 188 -22
425 -1 240 2 300 21 420 25 160 58 313 78 368 8 20 14 52 14 70 0 30 28 127
55 192 16 36 43 118 54 161 5 18 16 42 25 55 9 13 16 31 16 40 0 9 9 28 20 42
11 14 20 36 20 50 0 13 7 30 15 37 8 7 17 27 21 46 3 18 12 38 19 44 8 6 17
25 20 41 4 16 10 29 15 29 5 0 14 15 20 34 6 19 18 40 26 46 7 7 14 20 14 30
0 9 9 25 20 35 11 10 20 26 20 35 0 10 7 23 15 30 8 6 17 21 21 33 4 11 22 42
40 69 19 26 34 52 34 56 0 5 9 17 20 27 11 10 20 23 20 30 0 7 9 20 20 30 11
10 20 23 20 30 0 7 9 20 20 30 11 10 20 23 20 29 0 6 9 17 20 24 11 7 20 18
20 26 0 8 7 16 15 20 8 3 15 10 15 16 0 14 86 122 106 133 8 4 14 13 14 18 0
6 16 25 35 43 19 19 35 37 35 42 0 19 362 365 475 455 193 152 337 257 375
271 8 3 46 26 84 52 58 39 364 195 471 240 60 26 141 55 169 62 16 4 41 13 55
20 14 8 33 14 42 14 8 0 42 8 75 19 91 28 188 49 309 66 61 9 118 18 127 21
10 3 109 5 220 6 162 0 230 -4 333 -22 128 -21 151 -26 290 -70 76 -23 251
-97 275 -115 8 -6 26 -16 40 -23 30 -14 41 -21 145 -92 82 -55 302 -263 352
-333 15 -21 44 -59 64 -85 33 -42 149 -237 149 -248 0 -3 12 -31 26 -62 40
-90 42 -93 69 -173 14 -41 25 -84 25 -95 0 -11 7 -30 16 -43 9 -13 23 -44 30
-70 l14 -46 -5 55 c-14 151 -27 250 -40 297 -8 28 -15 63 -15 77 0 14 -8 49
-18 78 -11 29 -24 71 -29 93 -12 44 -26 86 -55 160 -33 83 -96 218 -120 255
-9 14 -26 43 -39 66 -133 231 -383 490 -599 620 -36 21 -75 45 -85 51 -18 11
-69 37 -191 94 -22 10 -47 19 -55 19 -8 0 -19 4 -24 8 -15 13 -168 59 -270 81
-230 50 -509 63 -745 34z"/>
<path d="M30149 36644 c-52 -33 -61 -63 -53 -174 10 -150 -15 -203 -121 -252
-46 -21 -63 -23 -210 -22 -90 1 -210 9 -275 18 -163 23 -455 53 -660 67 -336
22 -637 -11 -859 -94 l-62 -24 81 -47 82 -48 117 17 c133 19 497 30 586 18 45
-6 61 -12 63 -25 2 -10 -57 -266 -132 -570 -74 -304 -142 -599 -150 -655 -19
-124 -47 -238 -86 -345 -16 -44 -52 -164 -79 -267 -107 -400 -143 -495 -223
-586 -54 -61 -156 -109 -288 -135 -105 -21 -120 -29 -120 -63 0 -17 6 -18 48
-13 238 32 448 33 773 5 245 -21 330 -20 455 3 61 11 64 13 74 47 5 19 8 36 7
37 -1 2 -47 -4 -102 -13 -74 -11 -140 -13 -255 -9 -190 7 -224 14 -228 44 -5
35 115 540 324 1362 241 944 293 1141 306 1158 9 10 55 11 217 6 445 -15 701
40 849 179 66 63 103 132 109 207 7 69 -8 118 -46 154 -37 36 -104 45 -142 20z"/>
<path d="M26896 36288 c-406 -35 -819 -209 -1117 -471 -261 -229 -452 -558
-515 -884 -24 -123 -24 -337 0 -423 39 -142 126 -292 216 -373 102 -92 199
-87 250 12 17 33 5 83 -28 113 -15 15 -56 43 -92 64 -178 104 -260 253 -260
474 1 300 153 625 420 890 139 139 260 227 440 319 254 129 509 191 785 191
444 0 799 -196 1004 -554 117 -205 174 -496 152 -775 -19 -230 -68 -407 -168
-603 -199 -392 -526 -632 -968 -714 -198 -37 -636 -18 -683 30 -13 13 -8 27
36 113 92 180 193 460 271 748 16 61 77 313 135 560 115 484 156 641 211 804
39 116 38 114 27 107 -15 -9 -298 -65 -412 -81 -108 -15 -169 -35 -107 -35 74
0 127 -52 127 -125 0 -43 -172 -753 -296 -1224 -129 -489 -236 -768 -324 -843
-49 -42 -86 -54 -219 -69 -94 -11 -103 -14 -115 -38 l-14 -26 222 3 c123 2
290 -1 372 -7 82 -5 255 -18 384 -27 260 -19 404 -13 588 26 206 43 458 148
609 252 90 62 248 210 326 306 391 480 497 1125 262 1592 -135 266 -406 492
-715 594 -221 73 -514 100 -804 74z"/>
<path d="M27532 35913 c-103 -104 -177 -209 -238 -337 -70 -147 -87 -225 -88
-396 -1 -155 10 -214 59 -310 61 -121 177 -155 255 -75 28 29 33 42 33 79 0
49 -20 87 -94 172 -104 120 -131 207 -110 355 29 196 135 370 298 485 34 25
63 47 63 49 0 2 -20 18 -45 35 l-45 31 -88 -88z"/>
<path d="M22650 33009 c-300 -26 -523 -75 -760 -166 -457 -176 -821 -484
-1046 -885 -148 -263 -240 -552 -274 -853 -22 -202 -9 -548 30 -745 68 -352
255 -726 513 -1026 150 -174 303 -294 513 -402 502 -257 1179 -353 2214 -313
330 13 819 37 968 47 l92 6 0 1104 0 1104 -890 0 -890 0 0 -301 c0 -358 -1
-363 -93 -393 -33 -11 -241 13 -343 39 -141 35 -233 84 -313 164 -77 77 -111
136 -142 246 -32 112 -32 278 0 390 38 136 76 200 176 301 76 77 105 98 185
137 208 103 435 127 745 80 212 -32 402 -84 633 -175 84 -34 154 -59 156 -57
2 2 151 213 333 469 181 256 369 519 416 586 48 67 87 124 87 126 0 3 -73 42
-162 86 -436 215 -924 358 -1428 417 -161 19 -572 27 -720 14z"/>
<path d="M11560 30815 l0 -2135 1083 0 c1258 0 1399 6 1717 76 340 75 704 246
945 445 160 131 316 310 416 475 225 373 334 796 315 1224 -15 334 -73 572
-206 845 -162 332 -411 623 -700 817 -217 147 -513 268 -785 322 -301 60 -274
59 -1582 63 l-1203 4 0 -2136z m2259 596 c284 -72 441 -281 441 -591 0 -258
-105 -451 -295 -541 -153 -72 -475 -114 -571 -74 -64 27 -64 23 -64 610 0 583
0 582 62 611 50 22 314 13 427 -15z"/>
<path d="M17340 30815 l0 -2135 890 0 890 0 0 2135 0 2135 -890 0 -890 0 0
-2135z"/>
<path d="M26302 32568 l3 -383 275 0 c288 0 418 12 588 56 40 11 81 19 92 19
11 0 46 8 77 19 32 10 83 26 113 35 30 10 61 20 68 23 20 8 14 -10 -33 -93
-74 -128 -97 -214 -102 -379 -3 -77 -1 -164 5 -193 14 -79 9 -89 -52 -101
-190 -38 -268 -43 -529 -38 -168 3 -296 11 -357 21 -52 9 -107 16 -122 16
l-28 0 0 -1445 0 -1445 890 0 890 0 0 2135 0 2135 -890 0 -890 0 2 -382z"/>
<path d="M29320 32773 c0 -167 1 -175 18 -162 102 86 231 202 292 263 l74 76
-192 0 -192 0 0 -177z"/>
<path d="M29740 32884 c-84 -85 -256 -243 -348 -318 l-72 -59 0 -668 0 -669
451 0 c380 0 456 -2 483 -15 65 -31 61 60 64 -1267 l2 -1208 885 0 885 0 2
1208 c3 1327 -1 1236 64 1267 27 13 103 15 483 15 l451 0 0 890 0 890 -1643 0
-1643 0 -64 -66z"/>
<path d="M34925 32938 c-16 -43 -1468 -4226 -1472 -4240 -5 -17 42 -18 878
-18 l884 0 120 351 c84 247 126 357 143 374 14 14 41 27 65 30 23 3 366 5 762
3 801 -3 749 1 784 -73 10 -22 68 -185 127 -362 l109 -323 883 0 c485 0 882 2
882 3 0 5 -1446 4170 -1467 4225 l-16 42 -1339 0 c-1062 0 -1340 -3 -1343 -12z
m1409 -1369 c22 -17 54 -105 212 -586 103 -312 187 -579 186 -594 -1 -42 -20
-69 -57 -85 -28 -11 -108 -14 -404 -14 -206 0 -381 4 -394 9 -40 15 -67 51
-67 89 0 18 84 288 186 598 203 616 197 604 274 604 23 0 48 -8 64 -21z"/>
<path d="M40250 30815 l0 -2135 1755 0 1755 0 0 460 0 460 -815 0 c-906 0
-872 -2 -900 64 -13 31 -15 256 -15 1661 l0 1625 -890 0 -890 0 0 -2135z"/>
<path d="M17925 27774 c-406 -44 -722 -265 -885 -618 -91 -196 -120 -344 -127
-636 -8 -327 25 -506 131 -725 65 -133 126 -214 238 -320 138 -130 317 -223
507 -262 117 -25 398 -22 523 4 102 22 222 69 316 125 87 51 228 198 287 299
47 79 133 276 124 283 -2 1 -83 26 -179 56 -96 29 -180 55 -186 57 -6 2 -16
-15 -23 -39 -21 -74 -98 -221 -143 -275 -151 -180 -380 -257 -626 -208 -195
39 -368 174 -455 356 -81 168 -111 336 -111 624 0 277 29 439 108 600 140 283
442 425 764 359 177 -36 337 -156 415 -313 20 -40 37 -79 37 -86 0 -9 57 2
191 35 105 27 192 50 195 53 9 9 -63 164 -108 233 -125 191 -342 330 -593 380
-72 14 -328 26 -400 18z"/>
<path d="M26795 27773 c-248 -21 -469 -106 -627 -241 -306 -260 -447 -641
-424 -1147 8 -181 28 -305 72 -435 118 -353 356 -593 704 -708 217 -72 551
-79 797 -17 117 30 290 113 384 184 219 167 362 410 426 726 25 128 26 547 0
683 -103 544 -480 898 -1012 951 -102 10 -229 12 -320 4z m335 -323 c332 -68
545 -324 599 -720 38 -282 6 -595 -82 -792 -129 -290 -414 -462 -737 -445
-179 10 -321 63 -452 171 -207 171 -308 440 -308 821 0 162 11 257 46 393 109
431 489 664 934 572z"/>
<path d="M32495 27773 c-248 -21 -469 -106 -627 -241 -306 -260 -447 -641
-424 -1147 8 -181 28 -305 72 -435 118 -353 356 -593 704 -708 217 -72 551
-79 797 -17 117 30 290 113 384 184 219 167 362 410 426 726 25 128 26 547 0
683 -103 544 -480 898 -1012 951 -102 10 -229 12 -320 4z m335 -323 c332 -68
545 -324 599 -720 38 -282 6 -595 -82 -792 -129 -290 -414 -462 -737 -445
-179 10 -321 63 -452 171 -207 171 -308 440 -308 821 0 162 11 257 46 393 109
431 489 664 934 572z"/>
<path d="M35705 27774 c-16 -2 -68 -9 -115 -15 -215 -29 -430 -134 -595 -290
-138 -131 -230 -279 -299 -477 -60 -174 -71 -248 -71 -502 1 -195 4 -239 23
-327 103 -475 356 -774 770 -913 143 -48 255 -64 457 -64 189 -1 276 9 430 49
189 49 419 153 558 251 l77 55 0 484 0 485 -505 0 -505 0 0 -155 0 -155 279 0
c266 0 279 -1 305 -21 l26 -20 0 -200 c0 -226 7 -206 -96 -276 -121 -82 -266
-143 -416 -174 -313 -64 -629 43 -803 273 -150 198 -227 534 -196 861 33 344
147 561 371 706 198 128 512 157 746 70 75 -28 190 -114 246 -183 35 -44 96
-145 104 -173 0 -3 387 69 392 73 7 5 -64 163 -102 228 -58 96 -199 229 -302
282 -100 53 -213 90 -328 110 -88 14 -389 27 -451 18z"/>
<path d="M42590 27769 c-188 -20 -381 -98 -489 -196 -285 -257 -282 -686 7
-943 116 -104 303 -180 681 -280 384 -101 446 -126 530 -215 63 -67 86 -135
79 -241 -9 -139 -107 -274 -244 -339 -167 -79 -446 -85 -628 -14 -151 60 -283
217 -327 390 -10 38 -17 49 -33 49 -25 0 -360 -32 -364 -35 -1 -1 9 -46 23
-101 46 -184 146 -348 279 -462 98 -83 272 -155 441 -183 118 -20 445 -17 565
4 336 61 537 213 643 489 31 82 32 85 31 253 0 165 -1 172 -31 252 -107 283
-302 402 -911 557 -358 92 -483 151 -548 262 -32 54 -42 141 -24 213 15 62 76
135 147 173 170 93 489 103 663 20 101 -48 192 -160 220 -275 l12 -45 106 4
c59 3 149 7 200 10 86 6 92 7 92 28 0 44 -31 143 -72 226 -33 69 -58 101 -127
170 -121 120 -245 181 -441 216 -105 19 -366 26 -480 13z"/>
<path d="M11520 27575 l0 -155 364 0 c352 0 364 -1 390 -21 l26 -20 0 -1075 0
-1074 195 0 195 0 2 1075 c3 1016 4 1075 21 1092 16 17 48 18 387 21 l370 3 0
154 0 155 -975 0 -975 0 0 -155z"/>
<path d="M14250 26480 l0 -1250 930 0 930 0 0 155 0 155 -710 0 -711 0 -24 25
-25 24 0 376 0 376 25 24 24 25 636 0 635 0 0 155 0 155 -635 0 -636 0 -24 25
-25 24 0 311 0 311 25 24 24 25 686 0 685 0 0 155 0 155 -905 0 -905 0 0
-1250z"/>
<path d="M19950 26480 l0 -1250 195 0 195 0 2 555 c3 517 4 556 21 572 16 17
55 18 561 21 538 2 543 2 569 -18 l27 -21 0 -555 0 -554 195 0 195 0 0 1250 0
1250 -195 0 -195 0 0 -499 0 -500 -26 -20 c-26 -21 -36 -21 -566 -21 l-539 0
-24 25 -25 24 0 496 0 495 -195 0 -195 0 0 -1250z"/>
<path d="M22900 26480 l0 -1250 180 0 180 0 0 840 c0 827 0 840 20 860 25 25
61 26 90 2 12 -10 255 -396 539 -857 l517 -840 212 -3 212 -2 0 1250 0 1250
-175 0 -175 0 0 -840 c0 -917 1 -902 -55 -916 -15 -4 -36 -2 -48 4 -14 6 -192
287 -477 753 -250 409 -489 800 -531 869 l-76 125 -206 3 -207 2 0 -1250z"/>
<path d="M37850 26480 l0 -1250 195 0 195 0 0 1250 0 1250 -195 0 -195 0 0
-1250z"/>
<path d="M39180 26480 l0 -1250 930 0 930 0 0 155 0 155 -710 0 -711 0 -24 25
-25 24 0 376 0 376 25 24 24 25 636 0 635 0 0 155 0 155 -635 0 -636 0 -24 25
-25 24 0 311 0 311 25 24 24 25 686 0 685 0 0 155 0 155 -905 0 -905 0 0
-1250z"/>
<path d="M29020 26465 l0 -1235 860 0 860 0 0 155 0 155 -630 0 c-449 0 -636
3 -654 11 -14 7 -30 25 -36 42 -7 20 -10 369 -10 1068 l0 1039 -195 0 -195 0
0 -1235z"/>
</g>
</svg>
